<svg width="762" height="229" viewBox="0 0 762 229" fill="none"
    xmlns="http://www.w3.org/2000/svg">
    <path d="M212 58H221H259.5C289.876 58 314.5 82.6243 314.5 113V113V113C314.5 144.48 288.98 170 257.5 170H232.311C229.102 170 226.5 167.398 226.5 164.189V149.5H254.5C274.658 149.5 291 133.158 291 113V113V113C291 93.67 275.33 78 256 78H234.5V170H212V161V58Z" fill="#5F5D5D"/>
    <path d="M614 112C614 82.4528 637.953 58 667.5 58V58V58C695.943 58 719 81.0573 719 109.5V120H635.923V103H696V103C696 87.8122 683.688 75.5 668.5 75.5H667.5H666.754C650.462 75.5 637.254 88.7076 637.254 105V105V112V118V119V119C637.254 135.72 650.528 149.421 667.239 149.95L668.808 150V150C680.249 150 690.533 142.732 694.5 132V132L715.5 138V138C708.233 157.256 689.802 170 669.22 170H668.808V170C638.538 170 614 145.462 614 115.192V112V112Z" fill="#5F5D5D"/>
    <path d="M460 96.5V96.5C460 75.237 477.237 58 498.5 58H501V58C511.962 58 522.229 63.3699 528.482 72.374L531 76V76C537.502 64.8539 549.596 58 562.5 58V58V58C582.935 58 599.5 74.5655 599.5 95V170H576.5V120V94.5C576.5 84.835 568.665 77 559 77V77C549.335 77 541.5 84.835 541.5 94.5V170H518.5V120V94.5C518.5 84.835 510.665 77 501 77V77V77C491.335 77 483.5 84.835 483.5 94.5V120V146.5V170H460V140V96.5Z" fill="#5F5D5D"/>
    <path d="M52 96.5V96.5C52 75.237 69.237 58 90.5 58H93V58C103.962 58 114.229 63.3699 120.482 72.374L123 76V76C129.502 64.8539 141.596 58 154.5 58V58V58C174.935 58 191.5 74.5655 191.5 95V170H168.5V120V94.5C168.5 84.835 160.665 77 151 77V77C141.335 77 133.5 84.835 133.5 94.5V170H110.5V120V94.5C110.5 84.835 102.665 77 93 77V77V77C83.335 77 75.5 84.835 75.5 94.5V120V146.5V170H52V140V96.5Z" fill="#5F5D5D"/>
    <mask id="mask0_5080_31" style="mask-type:alpha" maskUnits="userSpaceOnUse" x="335" y="46" width="104" height="130">
        <path fill-rule="evenodd" clip-rule="evenodd" d="M354.533 46.0001C354.68 46.0368 356.832 46.6241 363.765 48.5877L364.391 49.4135C364.722 49.8723 364.998 50.3494 365.016 50.4595C365.016 50.6064 364.593 50.7715 363.949 50.8816C363.379 50.9917 361.871 51.3771 360.602 51.7258C359.333 52.0745 357.347 52.7351 356.188 53.1939C355.029 53.6527 353.171 54.5152 352.05 55.0841C350.928 55.6714 349.328 56.589 348.463 57.1579C347.599 57.7084 345.373 59.305 343.497 60.6997C341.621 62.0761 340.021 63.2689 339.948 63.3423C339.874 63.3974 339.506 64.9022 339.12 66.6823C338.752 68.4624 338.384 70.0039 338.292 70.0773C338.219 70.1691 338.071 70.1691 337.98 70.059C337.888 69.9489 337.17 68.7927 335 65.1041L336.453 60.6263C337.244 58.1488 337.961 56.0568 338.071 55.965C338.182 55.8732 341.86 53.5793 346.256 50.8816C350.652 48.1656 354.385 45.9818 354.533 46.0001V46.0001ZM364.685 103.734C364.777 103.734 367.131 107.147 369.927 111.295C372.741 115.461 375.04 118.984 375.04 119.113C375.04 119.278 372.998 120.287 369.982 121.627C367.205 122.875 364.299 124.233 363.545 124.655C362.791 125.095 361.043 126.196 359.682 127.114C358.193 128.123 356.482 129.481 355.379 130.527C354.385 131.482 353.098 132.895 352.528 133.647C351.958 134.4 351.148 135.592 350.762 136.308C350.357 137.005 349.714 138.327 349.328 139.244C348.923 140.144 348.371 141.795 348.095 142.915C347.801 144.016 347.488 145.888 347.36 147.044C347.231 148.328 347.212 149.686 347.452 151.87L350.578 153.375C352.307 154.201 354.569 155.229 355.636 155.632C356.703 156.036 358.432 156.623 359.498 156.935C360.565 157.247 362.055 157.614 362.809 157.779C363.563 157.945 364.942 158.183 365.844 158.33C366.745 158.477 368.786 158.697 370.35 158.789C372.373 158.936 374.047 158.936 376.143 158.789C377.762 158.679 380.042 158.422 381.201 158.22C382.36 158.018 384.42 157.578 385.744 157.229C387.087 156.88 389.202 156.201 390.434 155.742C391.685 155.265 393.892 154.293 395.363 153.54C396.835 152.806 398.986 151.577 400.145 150.806C401.304 150.035 403.051 148.769 404.008 147.998C404.964 147.227 406.748 145.594 407.962 144.383C409.176 143.172 410.905 141.226 411.806 140.07C412.689 138.914 413.994 137.042 414.693 135.941C415.392 134.822 416.496 132.84 417.14 131.537C417.783 130.215 418.611 128.325 418.979 127.316C419.347 126.306 419.714 125.371 419.788 125.224C419.862 125.095 424.184 123.168 429.389 120.966C434.594 118.764 438.916 117.021 438.989 117.094C439.045 117.167 438.879 118.837 438.585 120.801C438.309 122.765 437.849 125.371 437.573 126.582C437.297 127.793 436.782 129.738 436.433 130.894C436.084 132.051 435.421 133.996 434.962 135.207C434.502 136.418 433.582 138.565 432.902 139.978C432.221 141.391 431.191 143.373 430.584 144.383C429.996 145.392 428.874 147.172 428.083 148.328C427.292 149.485 425.931 151.338 425.048 152.457C424.147 153.559 422.345 155.577 421.02 156.935C419.714 158.275 417.673 160.183 416.514 161.156C415.356 162.129 413.535 163.542 412.468 164.294C411.42 165.047 409.47 166.313 408.146 167.12C406.84 167.909 404.504 169.157 402.996 169.891C401.469 170.625 399.373 171.561 398.306 171.965C397.239 172.369 395.418 172.993 394.26 173.342C393.101 173.69 391.188 174.186 390.029 174.443C388.871 174.7 387.05 175.048 385.983 175.195C384.916 175.36 382.801 175.58 381.293 175.691C379.252 175.837 377.523 175.837 374.672 175.672C372.538 175.562 370.056 175.36 369.154 175.213C368.235 175.067 366.745 174.736 365.844 174.479C364.924 174.222 363.269 173.562 362.165 173.03C361.043 172.497 359.609 171.708 358.947 171.268C358.285 170.827 357.089 169.928 356.28 169.231C355.471 168.552 354.385 167.524 353.87 166.937C353.355 166.331 352.491 165.23 351.939 164.478C351.387 163.725 350.597 162.441 350.174 161.633C349.751 160.826 349.144 159.504 348.831 158.697C348.518 157.89 348.058 156.403 347.819 155.394C347.58 154.384 347.341 153.192 347.286 152.733C347.176 151.907 347.157 151.889 345.152 150.567C344.031 149.852 342.522 148.64 341.787 147.906C341.051 147.191 340.003 145.961 339.469 145.209C338.936 144.456 338.182 143.208 337.796 142.456C337.409 141.703 336.858 140.29 336.545 139.336C336.232 138.382 335.883 136.895 335.754 136.033C335.625 135.06 335.57 133.537 335.644 131.995C335.699 130.417 335.864 129.023 336.104 128.142C336.306 127.389 336.729 126.105 337.042 125.297C337.336 124.49 337.998 123.168 338.476 122.361C338.954 121.553 339.984 120.067 340.738 119.058C341.492 118.067 342.78 116.543 343.589 115.681C344.398 114.837 345.796 113.515 346.716 112.763C347.617 111.992 349.236 110.799 350.302 110.102C351.369 109.405 353.135 108.395 354.257 107.845C355.36 107.313 358.137 106.156 360.418 105.312C362.699 104.45 364.611 103.752 364.685 103.734V103.734ZM375.867 52.1846C377.32 52.1662 378.994 52.2763 379.914 52.4415C380.778 52.5883 382.176 52.937 383.04 53.2123C383.905 53.4875 385.395 54.1115 386.351 54.607C387.307 55.0841 388.595 55.8549 389.202 56.277C389.809 56.7174 390.912 57.635 391.666 58.3324C392.42 59.0297 393.561 60.296 394.204 61.1585C394.848 62.021 395.768 63.5075 396.264 64.4618C396.761 65.4161 397.331 66.7374 397.552 67.398C397.773 68.0587 397.901 68.6276 397.846 68.6826C397.791 68.7377 396.945 68.3523 395.952 67.8201C394.977 67.3063 393.414 66.6273 392.512 66.3153C391.593 66.0217 390.103 65.6363 389.202 65.4711C388.227 65.3059 386.461 65.1958 384.88 65.1958C383.298 65.1958 381.532 65.3059 380.557 65.4711C379.638 65.6363 378.038 66.0584 376.971 66.407C375.904 66.7557 374.378 67.398 373.568 67.8385C372.759 68.2605 368.124 71.2886 363.269 74.5735C358.413 77.8584 354.349 80.5928 354.257 80.6478C354.146 80.7212 350.762 80.4276 346.716 80.0239C342.67 79.6202 339.341 79.2898 339.304 79.2715C339.285 79.2531 340.352 76.0049 344.067 64.9206L346.477 63.2689C347.801 62.3513 349.64 61.1585 350.56 60.5896C351.479 60.0207 353.098 59.1031 354.165 58.5342C355.231 57.9653 357.089 57.0845 358.303 56.5706C359.517 56.0384 361.466 55.286 362.625 54.9006C363.784 54.4969 365.697 53.9096 366.855 53.5977C368.014 53.2857 369.964 52.8452 371.177 52.625C372.741 52.313 374.102 52.1846 375.867 52.1846V52.1846ZM347.543 69.6369C347.543 69.9856 347.691 70.4627 347.911 70.738C348.132 71.05 348.518 71.3069 348.868 71.362C349.236 71.4354 349.695 71.362 350.026 71.1968C350.321 71.05 350.689 70.7013 350.817 70.4077C350.964 70.1141 351.02 69.6553 350.964 69.3616C350.909 69.0864 350.652 68.6643 350.394 68.4074C350.082 68.0954 349.732 67.9486 349.272 67.9486C348.794 67.9486 348.481 68.0954 348.095 68.4808C347.746 68.8478 347.562 69.2332 347.543 69.6369V69.6369ZM398.913 69.3983C399.336 69.6736 400.384 70.5728 401.23 71.362C402.076 72.1694 403.29 73.5091 403.934 74.3716C404.578 75.2341 405.552 76.8307 406.104 77.9502C406.656 79.0513 407.318 80.6295 407.557 81.437C407.815 82.2444 408.164 83.7676 408.33 84.832C408.587 86.3185 408.642 87.3278 408.55 89.2364C408.477 90.9798 408.311 92.2277 407.999 93.4572C407.76 94.4115 407.281 95.8613 406.969 96.6687C406.638 97.4762 406.049 98.7058 405.626 99.4215C405.221 100.119 404.541 101.165 404.136 101.715C403.713 102.266 402.886 103.257 402.279 103.899C401.653 104.542 400.347 105.716 397.57 107.955L392.696 100.614C390.011 96.577 387.859 93.2187 387.896 93.1269C387.933 93.0535 388.705 92.558 389.588 92.0442C390.489 91.512 391.795 90.5577 392.512 89.9154C393.23 89.2731 394.223 88.172 394.738 87.4746C395.271 86.7773 395.97 85.6211 396.32 84.9238C396.687 84.208 397.129 83.1437 397.35 82.5381C397.552 81.9325 397.901 80.6111 398.14 79.6018C398.471 78.097 398.545 77.2345 398.545 74.8304C398.545 72.7567 398.453 71.5088 398.251 70.5545C398.067 69.8388 397.993 69.1414 398.048 69.0497C398.104 68.9396 398.471 69.0864 398.913 69.3983ZM370.571 73.6559C370.662 73.6375 379.822 87.3095 390.949 104.009C402.076 120.709 411.18 134.436 411.18 134.51C411.18 134.601 410.592 135.391 409.875 136.308C409.157 137.207 407.686 138.859 406.619 139.942C405.534 141.043 403.824 142.621 402.812 143.447C401.8 144.273 400.476 145.3 399.869 145.722C399.262 146.145 398.711 146.438 398.655 146.365C398.582 146.273 389.091 132.069 377.541 114.782C366.009 97.5129 356.537 83.2905 356.5 83.1804C356.482 83.0886 359.609 80.9048 363.453 78.3355C367.297 75.7663 370.497 73.6559 370.589 73.6559H370.571ZM426.28 157.504C426.372 157.504 426.464 157.614 426.52 157.724C426.575 157.853 427.329 161.909 428.23 166.753C429.205 172.075 429.757 175.562 429.646 175.599C429.554 175.654 425.986 174.186 421.738 172.369C417.489 170.534 413.921 168.974 413.829 168.882C413.719 168.79 414.417 168.221 415.576 167.451C416.643 166.735 418.298 165.505 419.255 164.698C420.211 163.909 421.866 162.349 422.933 161.23C424 160.128 425.159 158.844 425.508 158.367C425.857 157.908 426.207 157.504 426.299 157.504H426.28Z" fill="#A495FF"/>
    </mask>
    <g mask="url(#mask0_5080_31)">
        <rect x="318.07" y="36.3256" width="153.984" height="158.822" fill="url(#paint0_linear_5080_31)"/>
    </g>
    <defs>
        <linearGradient id="paint0_linear_5080_31" x1="395.063" y1="36.3256" x2="395.063" y2="195.147" gradientUnits="userSpaceOnUse">
            <stop stop-color="#864EFF"/>
            <stop offset="1" stop-color="#409FFF"/>
        </linearGradient>
    </defs>
</svg>
